HIERARCHY
ROOT Hips
{
   OFFSET 0.00000 0.00000 0.00000
   CHANNELS 6 Xposition Yposition Zposition Zrotation Xrotation Yrotation
   JOINT RightUpLeg
   {
      OFFSET -8.945800 -8.667070 0.101652
      CHANNELS 3 Zrotation Xrotation Yrotation
      JOINT RightLeg
      {
         OFFSET 0.000000 -44.422697 1.372700
         CHANNELS 3 Zrotation Xrotation Yrotation
         JOINT RightFoot
         {
            OFFSET 0.253549 -42.092399 -1.460590
            CHANNELS 3 Zrotation Xrotation Yrotation
            JOINT RightToes
            {
               OFFSET 0.040000 -4.415090 8.499099
               CHANNELS 3 Zrotation Xrotation Yrotation
               End Site
               {
                  OFFSET -0.080000 -0.137448 9.779790
               }
            }
         }
      }
   }
   JOINT Spine
   {
      OFFSET 0.000000 11.890501 0.000000
      CHANNELS 3 Zrotation Xrotation Yrotation
      JOINT Spine1
      {
         OFFSET 0.000000 25.657401 0.127663
         CHANNELS 3 Zrotation Xrotation Yrotation
         JOINT HEad
         {
            OFFSET 0.000000 8.734161 0.011341
            CHANNELS 3 Zrotation Xrotation Yrotation
            End Site
            {
               OFFSET -0.290000 12.774200 2.513950
            }
         }
         JOINT LeftShoulder1
         {
            OFFSET 8.990000 -0.362252 -0.220000
            CHANNELS 3 Zrotation Xrotation Yrotation
            JOINT LeftArm
            {
               OFFSET 10.282700 -0.003380 0.322123
               CHANNELS 3 Zrotation Xrotation Yrotation
               JOINT LeftForeArm
               {
                  OFFSET 32.766900 0.099144 -1.424340
                  CHANNELS 3 Zrotation Xrotation Yrotation
                  JOINT LeftHand
                  {
                     OFFSET 27.564301 0.085362 1.022160
                     CHANNELS 3 Zrotation Xrotation Yrotation
                     End Site
                     {
                        OFFSET 16.744301 -0.600000 1.502910
                     }
                  }
               }
            }
         }
         JOINT RightShoulder
         {
            OFFSET -8.990000 -0.362252 -0.220000
            CHANNELS 3 Zrotation Xrotation Yrotation
            JOINT RightArm
            {
               OFFSET -10.282700 -0.003380 0.322123
               CHANNELS 3 Zrotation Xrotation Yrotation
               JOINT RightForeArm
               {
                  OFFSET -32.897098 0.099144 -1.424340
                  CHANNELS 3 Zrotation Xrotation Yrotation
                  JOINT RightHand
                  {
                     OFFSET -27.492101 0.085362 1.022160
                     CHANNELS 3 Zrotation Xrotation Yrotation
                     End Site
                     {
                        OFFSET -16.631201 -0.600000 1.502910
                     }
                  }
               }
            }
         }
      }
   }
   JOINT LeftUpLeg
   {
      OFFSET 8.945800 -8.667070 0.101652
      CHANNELS 3 Zrotation Xrotation Yrotation
      JOINT LeftLeg
      {
         OFFSET 0.000000 -44.422697 1.372700
         CHANNELS 3 Zrotation Xrotation Yrotation
         JOINT LeftFoot
         {
            OFFSET -0.253549 -42.092399 -1.460590
            CHANNELS 3 Zrotation Xrotation Yrotation
            JOINT LeftToes
            {
               OFFSET -0.040000 -4.415090 8.499099
               CHANNELS 3 Zrotation Xrotation Yrotation
               End Site
               {
                  OFFSET 0.080000 -0.047448 9.779790
               }
            }
         }
      }
   }
}
MOTION
Frames: 18
Frame Time: 0.016667
-848.933398 98.661164 444.552529 -34.344131 32.300463 -78.840484 6.192957 38.393532 17.131288 51.651342 12.578099 -37.442827 -24.996717 11.918821 29.979227 20.594733 -53.735977 -31.179298 25.265104 22.531235 16.613532 12.769096 14.934429 -28.445521 32.899099 6.401424 -32.665690 -60.004462 -22.237918 -66.009858 20.959713 50.850967 -55.359458 3.695545 -33.198749 -46.295955 -36.660419 -19.156953 -78.282902 29.131795 167.162705 6.172170 202.980217 -4.119229 241.728837 -11.958867 -34.212558 38.143410 14.870445 -12.412191 51.420403 35.338600 6.645201 -32.091528 -23.400908 2.868369 48.516323 0.967066 23.170180 9.450249 -31.338312 -26.562324 -16.369330
-848.110720 98.701981 444.418214 -31.223172 31.096571 -78.775761 4.867185 35.827737 18.398190 51.842775 10.436806 -32.688234 -23.607118 11.162206 29.737131 21.144439 -52.476801 -31.086250 25.904911 24.290031 19.346275 9.949528 13.501674 -28.120620 33.119720 6.135611 -33.152147 -59.091341 -25.808027 -64.206592 17.694232 46.538877 -58.883245 3.041340 -25.412339 -43.382066 -32.813557 -16.787015 -79.877942 34.187166 158.692069 5.017313 201.561942 -10.344220 243.877724 -14.212819 -34.698529 36.091519 14.841315 -13.042674 50.023657 33.892556 3.575734 -30.344587 -22.377669 2.403815 46.956031 -1.779322 23.638897 9.079249 -31.052693 -26.083111 -16.714393
-849.054400 98.293265 443.595422 -29.651665 29.887030 -79.962049 3.779430 32.886213 19.193030 50.928616 10.015487 -34.112516 -23.213562 8.870940 31.700079 22.416669 -50.531252 -31.638242 25.913616 25.336570 21.581048 9.936812 13.520015 -27.157128 33.284625 5.141483 -33.824128 -60.042444 -28.966050 -63.640752 14.793493 44.473899 -61.168285 2.482323 -20.713507 -45.512672 -34.094385 -21.326467 -80.288881 35.142341 153.942642 3.078247 204.629230 -10.667991 241.780555 -14.511266 -33.815027 34.621553 14.782292 -13.175741 48.505166 33.795305 2.242378 -29.111369 -25.683832 3.503920 48.053936 -5.447942 21.320073 10.129807 -30.729079 -25.527731 -17.022483
-849.868762 97.856806 443.095506 -28.179359 28.437542 -82.262033 2.441988 29.572981 17.374412 48.550856 9.981987 -36.177224 -21.321967 7.310120 32.619877 24.855422 -47.518855 -32.931873 23.999174 25.551963 23.814383 9.764018 14.431093 -25.821870 33.751704 4.629037 -34.766827 -61.029694 -31.086148 -63.614046 11.985157 44.001656 -61.330406 2.128538 -18.655663 -47.062947 -32.046001 -18.145864 -83.319955 37.169831 150.529760 1.316663 205.175481 -12.107909 240.265237 -13.917075 -32.113794 35.031852 15.846684 -12.631276 49.026196 33.070475 2.578854 -27.791529 -26.722972 3.324880 48.694078 -9.533524 19.908272 9.838725 -30.184051 -24.381544 -17.541109
-850.617129 97.504424 442.820275 -27.880817 26.850829 -83.573826 1.506638 26.637728 15.362687 45.676357 12.186246 -31.759478 -18.695387 7.609609 29.943471 27.024303 -44.666299 -33.274875 22.364765 25.418286 25.463900 9.051319 15.938747 -24.517719 34.529069 5.283837 -35.751833 -61.343418 -32.940947 -63.969564 10.977992 44.338357 -61.033560 1.893312 -17.011155 -48.409884 -32.825507 -20.051265 -83.757107 39.314654 146.697806 -1.195797 204.127730 -14.275447 238.434992 -12.841458 -29.629757 35.436920 16.690677 -11.829906 49.297802 31.931609 3.559708 -26.076081 -27.511367 3.560965 49.646873 -13.351033 18.686773 9.813817 -29.486716 -24.126115 -18.188285
-851.410891 97.247885 442.664407 -28.583496 25.724022 -83.700061 1.686524 23.297751 14.475056 44.421078 16.637607 -29.692332 -16.029083 7.560910 30.825576 28.140591 -42.965547 -31.934167 21.086160 25.171445 25.473332 9.095443 17.937952 -23.684142 35.865982 7.268226 -36.699071 -62.253056 -33.870450 -65.278215 10.251968 45.878862 -60.546656 1.966975 -21.971820 -48.585731 -34.306278 -13.853071 -84.450419 42.102488 142.629144 -4.319842 200.751868 -16.983709 236.427408 -11.623229 -27.014467 35.743019 17.822761 -11.005518 50.230475 30.827731 4.280669 -24.216900 -28.313048 5.140511 51.325692 -16.728600 16.963299 10.396900 -28.685609 -24.831079 -18.975515
-852.226321 97.148589 442.654107 -32.210049 26.405897 -81.538942 3.160330 22.078455 14.396992 43.487695 21.282480 -27.334533 -11.014072 7.615309 34.565405 28.405206 -41.900000 -28.804267 19.992976 24.941472 22.646781 10.261296 20.637452 -23.129105 37.796863 10.585063 -37.561714 -62.890387 -34.603080 -67.692632 10.101067 48.981896 -60.657749 3.182932 -24.833615 -47.404761 -36.042625 -12.914828 -84.607001 45.323165 138.596559 -8.081694 195.105173 -20.966239 233.638942 -10.078737 -24.232997 34.888190 18.489385 -10.477969 50.940989 31.517952 5.953342 -25.086144 -28.107678 8.821143 52.779734 -19.823627 15.091868 10.464971 -27.408902 -25.734886 -20.710366
-853.056781 97.286356 442.777856 -37.740466 28.958079 -78.933163 5.608504 21.920229 12.402941 43.173732 24.525782 -25.498095 -6.030499 8.778807 37.914681 29.062868 -41.498785 -26.355615 20.922698 25.497897 18.595482 11.858359 24.758947 -21.882408 39.960995 15.063803 -38.292250 -64.113101 -36.025925 -68.849967 10.245003 51.818917 -60.800862 4.398083 -26.495648 -46.893565 -35.350033 -11.061399 -86.398608 48.768688 133.122204 -12.636787 188.799105 -25.711620 229.923292 -8.251380 -21.469224 34.663688 19.714489 -9.790823 53.184460 32.352704 8.596502 -28.851873 -25.076756 15.277048 54.570452 -23.198592 13.815057 10.267205 -26.171251 -25.748167 -22.260304
-853.784777 97.638405 442.985833 -44.809774 30.212590 -72.736815 7.104392 21.880158 9.508086 43.758686 26.761678 -25.266960 -4.013179 9.489069 41.069880 29.560546 -42.022336 -23.944992 24.310484 24.726255 13.281504 12.767358 27.255785 -20.824507 41.241751 18.734056 -38.984941 -66.079683 -36.273905 -69.201216 9.530165 55.485592 -61.060593 5.151694 -27.576209 -47.906359 -35.634302 -11.938204 -88.816290 52.984499 125.980244 -16.903962 182.138073 -30.709067 224.333028 -6.367263 -19.818989 35.387425 21.313955 -8.921213 57.898448 34.765113 11.989402 -32.019285 -22.676518 18.318192 56.628969 -27.188050 13.497855 9.730034 -25.007853 -24.500918 -23.247794
-854.526889 97.936028 443.287652 -51.245417 32.505256 -66.476059 8.639820 18.901299 8.483829 43.790791 27.733573 -24.922735 -1.288755 10.125748 45.859601 29.109679 -42.199490 -19.346176 29.219027 23.526696 7.926492 13.002527 29.018615 -20.267536 41.775448 21.982233 -39.640618 -67.012468 -35.539014 -69.345640 9.570420 59.727327 -60.575793 6.820524 -28.152745 -46.215283 -34.422931 -11.994231 -89.984969 56.579849 118.282880 -21.709784 175.017833 -36.853737 217.103532 -5.856584 -17.825431 35.657829 23.820548 -6.875117 62.567005 38.274553 13.544259 -36.186110 -20.114880 22.714467 58.444044 -31.694216 14.997538 8.376545 -23.816771 -22.576010 -24.384542
-855.000140 98.016757 443.677590 -55.868676 33.244511 -61.137208 8.013874 14.379350 8.524596 42.285107 26.322791 -26.529828 -1.167505 13.761436 49.738961 28.970032 -42.949001 -15.810597 33.039684 20.397083 4.531646 12.916000 28.867600 -18.492959 41.579272 24.802696 -40.296767 -68.145678 -34.541759 -68.248876 8.116649 64.366562 -60.391337 8.660513 -29.214433 -45.576589 -33.957658 -13.416245 -90.790576 60.416390 109.831122 -25.856876 166.354940 -42.421574 208.222087 -6.069756 -17.378918 34.970032 26.260879 -5.043592 68.398983 42.531827 14.861199 -39.445787 -19.573200 24.157047 59.566264 -36.418975 18.061640 6.338053 -22.349969 -20.534566 -26.009053
-855.557772 97.709368 443.939012 -59.059239 34.889470 -57.623929 5.670356 8.978671 8.586920 42.687794 24.607537 -31.523594 0.577574 16.593174 52.414759 29.115420 -44.474992 -13.462291 38.654329 18.337431 1.248246 12.699076 29.029564 -17.494384 40.658094 27.102455 -40.990117 -67.905392 -33.725012 -66.612875 7.476687 69.040850 -59.947068 9.618751 -29.604615 -44.445936 -32.724526 -14.805524 -92.236357 63.443660 102.187375 -31.323350 156.751680 -49.577881 197.049769 -4.810816 -16.400471 32.737677 28.879792 -3.148096 76.083663 46.968308 14.760502 -40.713678 -20.262552 24.809551 61.649294 -41.092494 18.690989 5.438447 -21.283541 -21.237025 -27.834585
-856.284625 97.058676 444.141648 -63.189447 38.035411 -54.648781 3.640794 1.760235 8.129861 44.289078 23.989935 -39.059847 -5.996035 18.902846 52.693567 30.474504 -44.410177 -13.209704 41.615475 16.305769 -0.367523 12.086577 28.310487 -16.136141 39.183583 29.378928 -41.675974 -68.732938 -33.495620 -63.703624 5.894522 73.085012 -59.863856 10.494990 -29.958022 -45.836624 -32.310094 -16.401441 -94.427522 66.757818 95.358928 -35.886978 146.132252 -55.958101 185.246000 -4.884909 -15.804711 33.083305 31.202896 -1.153692 82.514313 53.150162 15.232935 -39.852549 -21.240881 24.336466 64.379164 -45.451180 19.546195 5.638343 -20.282168 -21.208781 -29.156797
-857.314211 95.943345 444.240487 -67.979814 40.413789 -53.519286 1.178474 -4.828431 7.774729 41.093604 24.166630 -44.568688 -6.913190 25.377892 51.443260 32.926488 -41.881658 -14.738134 41.473960 13.496355 0.781246 11.461106 24.876784 -13.462177 35.735379 28.318886 -42.597602 -68.502610 -29.523035 -58.609546 5.081415 77.451155 -56.738696 12.122099 -29.432084 -45.160050 -31.654290 -16.922791 -95.419512 71.769162 91.273020 -37.617847 135.908060 -62.259408 170.014938 -7.001085 -15.583671 31.834180 32.552265 -0.106195 84.935902 58.819424 17.283964 -41.196836 -22.592043 26.867767 64.969285 -50.004921 21.664438 4.385704 -18.700271 -20.145457 -31.061880
-858.739611 94.444922 444.165490 -70.693742 43.098080 -53.211815 -3.302002 -12.157661 4.924737 40.772234 26.407378 -46.059790 -12.583678 27.383774 49.707433 33.069379 -40.356586 -13.453640 43.763908 12.950057 0.653118 11.415767 19.809304 -13.177566 34.582293 28.595106 -43.767934 -68.294945 -26.028239 -53.740079 4.488250 80.052317 -53.504902 13.528809 -29.034605 -45.273776 -31.409164 -18.110662 -95.996376 73.345338 85.844297 -40.093596 123.682309 -67.463650 155.966769 -10.437061 -16.602277 29.565693 32.769257 -0.711844 84.184472 62.904608 17.937361 -43.059264 -22.744678 29.796813 64.556086 -54.232716 23.903869 2.788540 -16.769889 -19.008843 -33.529494
-860.743090 92.778014 443.711045 -74.123125 44.177114 -54.497352 -7.263287 -17.625312 -2.320652 37.321817 29.070371 -45.924990 -14.818669 29.222681 44.354262 34.038145 -39.398942 -14.022139 45.205204 15.935284 2.644615 11.365845 19.582755 -12.241584 34.553958 28.065259 -45.315846 -68.603684 -22.864678 -52.228110 4.146851 80.781986 -50.593028 14.577374 -28.632798 -44.557484 -30.821082 -19.775877 -95.807104 75.608855 84.436083 -41.694241 123.136385 -71.768868 154.429170 -14.709145 -15.805088 26.103991 33.218304 0.230974 82.269226 67.676287 23.343859 -47.063760 -21.745594 31.865230 61.141272 -58.567083 25.687913 -1.714601 -13.993295 -18.162081 -38.137457
-863.310534 90.985106 442.986940 -78.714686 39.537725 -54.461371 -15.160578 -16.454928 -11.893863 32.414179 31.710000 -42.638579 -18.214472 32.674607 37.456549 35.288302 -34.043992 -14.846912 41.661538 18.275459 7.925010 8.848250 20.745026 -9.943611 34.943309 25.994643 -47.240915 -69.290439 -21.649748 -54.417582 0.893361 80.091550 -51.051921 15.161007 -26.936924 -43.905894 -23.621441 -23.383282 -108.743879 70.449993 81.284196 -34.119947 123.929794 -75.453803 151.999084 -20.534539 -11.376752 26.599970 28.127272 13.811265 89.592985 68.882465 29.795389 -45.461896 -20.414220 32.112852 62.904458 -61.094355 27.350164 0.489113 -13.071549 -17.489905 -39.865331
-866.373278 89.254368 442.341073 -81.307542 44.414343 -55.876449 -16.749321 -22.484841 -25.184622 26.673311 28.663206 -33.128770 -15.077074 29.643772 32.717132 34.095895 -33.172911 -12.415867 43.876906 21.148822 9.703665 8.697735 22.389381 -10.278033 36.141505 24.738240 -49.248218 -68.779370 -23.000645 -55.832886 -1.149940 76.725503 -52.646531 15.127484 -25.275257 -39.848536 -30.170619 -25.316308 -87.832380 71.741623 84.083542 -37.475008 134.747884 -76.162039 163.455852 -27.873756 -6.599677 26.158588 36.212379 -2.639574 65.867926 72.026913 34.378186 -45.122368 -16.975643 34.461760 64.971334 -64.021351 27.212594 2.348646 -12.513887 -18.159941 -42.157973
